<?xml version="1.0" encoding="UTF-8"?>
<svg xmlns="http://www.w3.org/2000/svg" xmlns:xlink="http://www.w3.org/1999/xlink" viewBox="0 0 250 100">
  <defs>
    <linearGradient id="a" x1="-76.85" y1="60.36" x2="393.01" y2="61.61" gradientUnits="userSpaceOnUse">
      <stop offset="0" stop-color="#fca1a9"></stop>
      <stop offset="0.19" stop-color="#fba7ae"></stop>
      <stop offset="0.45" stop-color="#f9b8be"></stop>
      <stop offset="0.74" stop-color="#f5d3d7"></stop>
      <stop offset="1" stop-color="#f1f2f4"></stop>
    </linearGradient>
    <linearGradient id="b" x1="-76.8" y1="39.9" x2="393.06" y2="41.15" xlink:href="#a"></linearGradient>
    <linearGradient id="c" x1="-76.86" y1="61.12" x2="393.01" y2="62.37" xlink:href="#a"></linearGradient>
    <linearGradient id="d" x1="-76.84" y1="56.62" x2="393.02" y2="57.87" xlink:href="#a"></linearGradient>
    <linearGradient id="e" x1="-76.74" y1="18.46" x2="393.12" y2="19.71" xlink:href="#a"></linearGradient>
    <linearGradient id="f" x1="-76.81" y1="42.6" x2="393.06" y2="43.85" xlink:href="#a"></linearGradient>
    <linearGradient id="g" x1="-76.81" y1="42.6" x2="393.06" y2="43.85" xlink:href="#a"></linearGradient>
    <linearGradient id="h" x1="-71.21" y1="44.57" x2="398.65" y2="45.82" xlink:href="#a"></linearGradient>
    <linearGradient id="i" x1="-71.23" y1="53.72" x2="398.63" y2="54.97" xlink:href="#a"></linearGradient>
    <linearGradient id="j" x1="-71.22" y1="50.07" x2="398.64" y2="51.32" xlink:href="#a"></linearGradient>
  </defs>
  <path d="M127.25,43c-4.27-1.49-8.68-1.5-14,0-8.08,2.31-11.9,8.52-12.86,17.34,0,8.48,2.87,15.17,11.36,18.25,6.13,2.19,16.75,1.49,20.34-.9a4.48,4.48,0,0,0,2.09-3.59c.08-2.3.23-4.56-3-6.28a3.76,3.76,0,0,0-3.59,0c-1.67,1-2.39,1.79-6.88,1.5S114,68.06,112.68,65a122.87,122.87,0,0,0,17-.47c3.14-.31,6.28-1.49,6.28-6.88C136.18,52.52,133.61,45.08,127.25,43ZM124,58.54c-1.79,1.2-11.36.3-11.36.3,0-3.43,2-6,6.79-6.13C123.93,52.92,126.14,56.45,124,58.54Z" fill="url(#a)"></path>
  <path d="M186.84,16.56c-.3,14.26.06,29.06.9,44.25.21,4.19,2.69,5.5,5.81,6l8.94.6c3.93,0,5.19-11.7,0-11.56-1.6.06-3.1.06-3.39-.7l-.3-38.28c0-1.79-1.79-3-5.68-3S186.84,14.76,186.84,16.56Z" fill="url(#b)"></path>
  <path d="M227.77,54.3l7.81-16.59c1.29-2.17,3-3,4.78-2.4l4.79,2.1c2.39,1.19,1.94,3.36,1.49,4.78L226.91,86.45c-1,2.6-4.49,3-8.08,1.19s-3.75-3.92-3-5.68l6-13.75L206.87,43.39c-.66-1.47-.84-2.89,0-4a16.61,16.61,0,0,1,5.39-3.44,4.31,4.31,0,0,1,5.08,1.2Z" fill="url(#c)"></path>
  <path d="M174.28,39.16c-3.89,0-6,0-6.58,3.88-3.29-4.78-12.86-5.68-19,.23-8.22,7.85-8.22,22.8,1.65,29.08,7.17,5.08,15.55,2.9,17.94-.3.37,1.44-.3,3.29,5.38,3.29,4.79,0,5.46-2.61,5.28-4.07l.1-27.63C179.22,41,177.27,39.16,174.28,39.16ZM161,63.68a6.43,6.43,0,1,1,6.43-6.43A6.43,6.43,0,0,1,161,63.68Z" fill="url(#d)"></path>
  <path d="M162.13,12.45c-8.36,1.19-15.7,8.36-15.7,8.36-.9-3.79-8.19-3.58-8.19,0,0,0-4.78-9.56-15.53-9.56s-10.09,9.91,1.19,13.14c0,0,7.17,2.39,19,2.39,15.45,0,24-3.58,24-3.58C174.08,19.61,170.5,11.25,162.13,12.45Zm-38.88,7.78s-4.78-3,0-4.18S134,23.22,134,23.22C129.38,22.79,125.48,22,123.25,20.23Zm38.27.45c-2.23,1.73-6.13,2.55-10.75,3,0,0,6-8.36,10.75-7.16S161.52,20.68,161.52,20.68Z" fill="url(#e)"></path>
  <path d="M88.79,16.15V69.92c4-.3,4.51-2.5,4.66-4.09V19C93.58,18,92.8,16.37,88.79,16.15Z" fill="url(#f)"></path>
  <path d="M81.49,19V36.39c.05.22-2-3.7-8.47-3.33C56.92,35.44,57,50.15,57,51.81c0,7,5.15,17.24,16.4,17.85,3.62.18,6.28-.89,8.1-3,.86,2.38,3.46,3.2,5.75,3.32V16.13C82.05,16.26,81.44,18,81.49,19ZM75.26,58.05a6.81,6.81,0,1,1,6.81-6.81A6.81,6.81,0,0,1,75.26,58.05Z" fill="url(#g)"></path>
  <circle cx="22.39" cy="44.81" r="1.72" fill="url(#h)"></circle>
  <circle cx="31.78" cy="53.99" r="1.74" fill="url(#i)"></circle>
  <path d="M46,50.86l-1.47-3.23a1.78,1.78,0,0,0-1.89-.77,5.38,5.38,0,0,1-5.33-2.66,5.07,5.07,0,0,1,.84-6.38,1.85,1.85,0,0,0,.42-2L37,33C35.79,31.3,33.2,30,31,31L10.59,41.14l2.83,5.54c.42,1.33-1.4,1.75-1.89.84L8.84,42,5.3,43.78a4.92,4.92,0,0,0-1.76,6.45l8.84,17.66c.77,1.48,2.8,2.81,5.81,1.69l3.5-1.75L18.82,62a1,1,0,1,1,1.82-.7l2.89,5.64L44.06,56.61A4.91,4.91,0,0,0,46,50.86Zm-29.19,7-3.09-6.3a1,1,0,1,1,1.83-.71L18.65,57C19.07,58.33,17.25,58.75,16.76,57.83Zm2.18-14.42A3.71,3.71,0,1,1,21,48.23,3.71,3.71,0,0,1,18.94,43.41Zm2.54,13.75,9.41-16.33a1,1,0,0,1,1.66,1L23.11,58.18C22.44,59.12,21.07,58.2,21.48,57.16Zm13.81-1.82a3.77,3.77,0,1,1-2.11-4.89A3.76,3.76,0,0,1,35.29,55.34Z" fill="url(#j)"></path>
</svg>

