<svg id="Layer_1" data-name="Layer 1" xmlns="http://www.w3.org/2000/svg" xmlns:xlink="http://www.w3.org/1999/xlink" viewBox="0 0 1080 1080"><defs><style>.cls-1{fill:#fff;}.cls-2{fill:url(#linear-gradient);}.cls-3{fill:url(#linear-gradient-2);}.cls-4{fill:url(#linear-gradient-3);}.cls-5{fill:url(#linear-gradient-4);}.cls-6{fill:url(#linear-gradient-5);}</style><linearGradient id="linear-gradient" x1="95.6" y1="622.64" x2="827.96" y2="630.58" gradientUnits="userSpaceOnUse"><stop offset="0.21" stop-color="#5ac2e2"/><stop offset="0.3" stop-color="#7db5e7"/><stop offset="0.39" stop-color="#9ea8eb"/><stop offset="0.48" stop-color="#b3a1ee"/><stop offset="0.53" stop-color="#ba9eef"/><stop offset="0.58" stop-color="#cc9fe5"/><stop offset="0.67" stop-color="#e3a0d8"/><stop offset="0.76" stop-color="#f3a0ce"/><stop offset="0.86" stop-color="#fca1c9"/><stop offset="1" stop-color="#ffa1c7"/></linearGradient><linearGradient id="linear-gradient-2" x1="96.55" y1="535.26" x2="828.91" y2="543.2" xlink:href="#linear-gradient"/><linearGradient id="linear-gradient-3" x1="96.75" y1="517.29" x2="829.11" y2="525.22" xlink:href="#linear-gradient"/><linearGradient id="linear-gradient-4" x1="97.85" y1="415.01" x2="830.21" y2="422.95" xlink:href="#linear-gradient"/><linearGradient id="linear-gradient-5" x1="95.71" y1="612.67" x2="828.07" y2="620.61" xlink:href="#linear-gradient"/></defs><polygon class="cls-1" points="734.2 136.17 90.74 457.49 320 948 990.6 625.45 953 490 866 488 778.5 410.13 801 269 799 195 734.2 136.17"/><path class="cls-2" d="M301.71,566.26,368.9,703.7c10.69,19.85,50.39,10.69,41.23-18.33L341.41,551C327.67,520.45,291,544.88,301.71,566.26Z"/><path class="cls-3" d="M1004.93,551.75l-32.07-70.24c-7.64-15.27-29-19.85-41.23-16.8,0,.81-76.32,11.32-116.06-58-38.8-67.71,0-123.69,18.32-139,10.69-10.69,15.27-24.44,9.17-44.29l-33.6-61.08c-26-36.65-82.46-64.14-129.8-44.28L119.23,397.52C70.36,423.48,56.62,492.2,81.05,538L273.46,922.83c16.8,32.07,61.08,61.08,126.75,36.65L963.69,677C1009.51,644.9,1018.67,596,1004.93,551.75Zm-68.72,87L496.38,858.71h0L455.55,777c-19.46-30.57-53.05-6.13-40.84,18.3l40.44,84-74.8,37.39c-19.85,9.16-56.5,1.53-70.24-24.43L122.28,519.68c-16.8-39.7,4.58-70.24,24.43-79.4l71.46-35.93,39.25,76.39c12.22,19.86,51.93,3.06,39.71-18.32l-39.71-77.81,439-220.73c34.3-12.29,63.92,8.37,73.3,29l23.8,47.39c-86.41,113-26.86,270.24,138.07,274.82l26,50.4C969.8,594.51,960.64,625.05,936.21,638.8Z"/><path class="cls-4" d="M676.78,333.3c12.13-18.19,45.08-1.86,36.08,20.86L507.34,711.3c-14.67,20.47-44.52.44-35.52-22.28Z"/><path class="cls-5" d="M521.42,344a80.93,80.93,0,1,0,45.44,105.05A80.93,80.93,0,0,0,521.42,344ZM477.75,454.85a37.42,37.42,0,1,1,48.56-21A37.41,37.41,0,0,1,477.75,454.85Z"/><path class="cls-6" d="M726.55,542.77A82.19,82.19,0,1,0,772.7,649.45,82.18,82.18,0,0,0,726.55,542.77ZM682.21,655.31A38,38,0,1,1,731.52,634,38,38,0,0,1,682.21,655.31Z"/></svg>

